<svg xmlns="http://www.w3.org/2000/svg" width="247" height="276" viewBox="0 0 247 276"><g transform="translate(0 17)"><g transform="translate(0 -17)"><path d="M546.091,675.434c-2.583-.054-5.156-.262-7.708-.553s-5.086-.716-7.571-1.223c-1.238-.271-2.466-.566-3.655-.923-.591-.179-1.194-.337-1.755-.549l-.428-.148a1.662,1.662,0,0,1-.354-.141,1.689,1.689,0,0,1-.4-.258,6.82,6.82,0,0,1-1.685-2.353,27.679,27.679,0,0,1-1.341-3.336c-.792-2.353-1.417-4.857-2.05-7.381s-1.249-5.1-2.023-7.7c-.392-1.3-.829-2.616-1.376-3.945a15.972,15.972,0,0,0-2.3-4.055l-.436-.508c-.166-.167-.353-.333-.533-.5a5.832,5.832,0,0,0-2.1-1.258l-.43-.152-.29-.06-1.137-.215c-.77-.156-1.461-.181-2.2-.264-.719-.046-1.43-.055-2.145-.077a53.429,53.429,0,0,0-8.235.747c-5.332.845-10.488,2.222-15.45,3.2l-1.018.215c-.359.081-.72.155-1.073.246-.686.213-1.4.387-2.062.638-1.355.457-2.639,1-3.895,1.57-2.51,1.141-4.847,2.431-7.15,3.672s-4.548,2.465-6.8,3.466c-2.146.959-4.777,1.834-7.183,2.846-4.88,1.967-9.646,3.959-14.492,5.518l-1.82.56-.911.266c-.29.079-.5.1-.757.165a8.861,8.861,0,0,1-1.485.179,10.555,10.555,0,0,1-1.546-.125,26.484,26.484,0,0,1-6.708-2.4,33.558,33.558,0,0,0-7.85-2.73,16.169,16.169,0,0,0-2.192-.247c-.376-.01-.725-.036-1.12-.03-.441.036-.886.069-1.311.135a10.53,10.53,0,0,0-4.16,1.973c-1.141.827-2.136,1.7-3.131,2.5a10.012,10.012,0,0,1-3.02,1.849l-.389.118-.383.032a2.153,2.153,0,0,1-.769-.043,5.3,5.3,0,0,1-1.6-.7c-1.145-.659-2.3-1.291-3.465-1.911a74.319,74.319,0,0,0-7.174-3.343c-1.226-.525-2.427-1.151-3.833-1.666a8.11,8.11,0,0,0-2.35-.47,5.19,5.19,0,0,0-2.788.669,6.061,6.061,0,0,0-.658.449,5.951,5.951,0,0,0-.536.489,5.284,5.284,0,0,0-.892,1.154,6.258,6.258,0,0,0-.859,2.738,10.379,10.379,0,0,0,.8,4.8,29.244,29.244,0,0,0,4.458,7.008,60.044,60.044,0,0,1,4.664,6.361,36.248,36.248,0,0,1,3.312,7.091,20.532,20.532,0,0,1,.887,7.365c0,.571-.122,1.116-.146,1.654-.129.528-.14,1.057-.3,1.56a13.01,13.01,0,0,1-.894,2.791,12.667,12.667,0,0,1-7.65,4.9,18.973,18.973,0,0,1-5.032.576,21,21,0,0,1-5.106-.641,15.135,15.135,0,0,1-8.466-5.053c-1.869-2.04-1.217-5.837-.082-9.3a99.494,99.494,0,0,1,4.536-10.446l2.483-5.279c.407-.889.813-1.782,1.181-2.7a18.158,18.158,0,0,0,.983-2.836c.058-.251.093-.516.145-.771a3.616,3.616,0,0,0,0-.845,3.1,3.1,0,0,0-.213-.792,7.2,7.2,0,0,0-.3-.7,15.561,15.561,0,0,0-1.568-2.543c-1.2-1.568-2.544-2.981-3.727-4.513a22.309,22.309,0,0,1-1.622-2.345c-.07-.126-.134-.253-.2-.379a51.2,51.2,0,0,0,7.133-4.452l.1-.073a1.713,1.713,0,0,0,.334-.329l.264-.342a5.18,5.18,0,0,0,.426-.636,2.894,2.894,0,0,0,.183-.415c.028-.08.053-.161.075-.242a2.421,2.421,0,0,0,.058-.558,2.066,2.066,0,0,0-.4-1.246,2.363,2.363,0,0,0-.536-.54,1.859,1.859,0,0,0-.329-.182,2.866,2.866,0,0,0-.631-.2l-.28-.027a2.713,2.713,0,0,0-.469,0,5.121,5.121,0,0,0-.613.075c-.177.03-.357.061-.5.1-.317.069-.615.143-.9.221-1.151.311-2.231.651-3.3,1.042l-.235.086a.385.385,0,0,0-.06.029,9.033,9.033,0,0,0-2.736,2.311,4.953,4.953,0,0,0-.769,1.726c-.906.366-1.82.693-2.741.971a18.66,18.66,0,0,1-10.893.283,13.777,13.777,0,0,1-2.353-1.009,71.081,71.081,0,0,1-.272-8.342,14.3,14.3,0,0,1,.251-1.972l.231-1.036c.1-.47.227-.95.276-1.412a20.062,20.062,0,0,0-.058-5.279c-.407-3.3-1.187-6.315-1.447-9.162a14.925,14.925,0,0,1,.089-3.98,11.764,11.764,0,0,1,1.429-3.656,64.066,64.066,0,0,1,5.254-7.413,55.733,55.733,0,0,0,5.428-7.739c.8-1.1,1.616-2.182,2.486-3.22a24.56,24.56,0,0,1,2.795-2.962,6.947,6.947,0,0,1,1.637-1.121,1.941,1.941,0,0,1,1.6-.067,4.632,4.632,0,0,1,1.61,2.089,6.416,6.416,0,0,1,.383,1.385c-.023.242-.042.488-.047.749,0,.109,0,.225.009.355a1.837,1.837,0,0,0,.038.24l.032.1a.783.783,0,0,0,.082.167.661.661,0,0,0,.1.13.824.824,0,0,0,.34.207.805.805,0,0,0,.576-.059.768.768,0,0,0,.213-.164.839.839,0,0,0,.146-.211c.031-.062.037-.082.049-.112l.049-.146.052-.214c.027-.129.044-.244.058-.36a8.674,8.674,0,0,0-.121-2.639,7.378,7.378,0,0,0-1.02-2.562,6.453,6.453,0,0,0-2.123-2.042,7.611,7.611,0,0,0-2.759-.959c-.234-.038-.469-.066-.7-.085a7.023,7.023,0,0,0-.926.023c-.3.044-.585.115-.878.186-.262.088-.513.188-.771.288a15.7,15.7,0,0,0-4.276,3.316c-2.3,2.4-4.228,4.9-6.164,7.285-.959,1.192-1.888,2.373-2.829,3.448a14.356,14.356,0,0,1-2.745,2.6,2.676,2.676,0,0,1-.807.361c.006.008-.044.006-.1,0l-.16-.009-.321-.018-.64-.035c-.423-.037-.862,0-1.29,0-.269.008-.539.028-.808.045.036-1.013.062-2.01.1-2.971a26.912,26.912,0,0,1,.3-3.367,15.035,15.035,0,0,1,.346-1.47c.168-.484.34-.971.554-1.459a34.061,34.061,0,0,1,3.646-5.872c1.441-1.978,3.024-4,4.458-6.3.361-.572.713-1.157,1.037-1.784a20.309,20.309,0,0,0,.932-1.918c.311-.641.512-1.383.765-2.074.184-.715.382-1.523.493-2.194a62.569,62.569,0,0,0,.715-7.855c.188-5.153-.013-10.12.372-14.846l.083-.88.043-.437.07-.3q.066-.3.115-.609c.05-.209.156-.431.226-.646a8.09,8.09,0,0,1,.588-1.337,14.314,14.314,0,0,1,.793-1.378,59.028,59.028,0,0,1,4.318-5.644,61.187,61.187,0,0,0,4.783-6.335c.375-.6.719-1.264,1.073-1.9.3-.711.641-1.385.889-2.151a12.252,12.252,0,0,0,.544-2.437l.123-1.3a8.816,8.816,0,0,0-.178-1.651,10.369,10.369,0,0,0-2.639-4.711,24.237,24.237,0,0,0-3.258-2.876,76.4,76.4,0,0,0-6.594-4.261c-2.175-1.288-4.331-2.524-6.358-3.812a27.169,27.169,0,0,1-5.262-4.061,4.166,4.166,0,0,1-1.062-1.685.662.662,0,0,1-.026-.07l0-.153-.012-.306a2.752,2.752,0,0,1,0-.64l.057-.693c.027-.238.093-.5.135-.746a41.373,41.373,0,0,1,2.2-6.619,56,56,0,0,0,2.5-7.516A18.23,18.23,0,0,0,345,483.1a33.687,33.687,0,0,0-3.2-7.53c-1.238-2.285-2.59-4.414-3.837-6.531a46.369,46.369,0,0,1-3.236-6.3l-.309-.779-.23-.769a9.941,9.941,0,0,1-.34-1.51,3.418,3.418,0,0,1-.06-.723c0-.238-.041-.471-.017-.718l.094-.75a3.362,3.362,0,0,1,.137-.763,20.782,20.782,0,0,1,2.758-6.2,45.689,45.689,0,0,1,4.375-5.777,64.247,64.247,0,0,1,11.038-9.94,46.557,46.557,0,0,0-12.884,8.079,39.435,39.435,0,0,0-5.4,5.6,22.782,22.782,0,0,0-3.975,7.139,16.113,16.113,0,0,0-.488,2.169,11.377,11.377,0,0,0-.072,1.156,6.674,6.674,0,0,0,.013,1.149,14.2,14.2,0,0,0,.316,2.183l.237,1.051.31.995a45.657,45.657,0,0,0,3.275,7.215c1.207,2.248,2.431,4.417,3.548,6.552a28.636,28.636,0,0,1,2.554,6.306,12.67,12.67,0,0,1-.3,6.109,51.041,51.041,0,0,1-2.4,6.669,46.07,46.07,0,0,0-2.662,7.575c-.074.366-.164.717-.22,1.1l-.129,1.177a7.5,7.5,0,0,0-.028,1.234l.021.633.014.316.065.39a9.786,9.786,0,0,0,2.479,4.821,32.505,32.505,0,0,0,6.507,5.206c2.191,1.416,4.372,2.688,6.494,3.97a70.914,70.914,0,0,1,5.991,3.931,18.112,18.112,0,0,1,2.356,2.1,4.277,4.277,0,0,1,1.069,1.715c.041.094-.011.141.031.211-.033.191-.059.381-.079.571a5.824,5.824,0,0,1-.283,1.216c-.13.425-.361.877-.532,1.321-.262.457-.483.914-.767,1.377a55.75,55.75,0,0,1-4.23,5.671,64.379,64.379,0,0,0-4.733,6.334,20.721,20.721,0,0,0-1.061,1.885,13.993,13.993,0,0,0-.9,2.106c-.124.379-.27.736-.367,1.134l-.239,1.234-.107.619-.044.5-.086.989c-.389,5.268-.109,10.333-.163,15.19a56.737,56.737,0,0,1-.48,7.111,15.6,15.6,0,0,1-2.293,5.89c-1.172,1.983-2.629,3.952-4.093,6.051a38.937,38.937,0,0,0-4.077,6.981c-.274.663-.511,1.365-.728,2.068a16.309,16.309,0,0,0-.443,2.2,23.829,23.829,0,0,0-.144,4.125c.045,1.322.137,2.6.223,3.839a26.914,26.914,0,0,0-4.19,1.818c-.7.361-1.36.711-2.01.981a15.189,15.189,0,0,1-2.1.671,47.2,47.2,0,0,1-9.184,1.341,12.159,12.159,0,0,0-2.377.361,1.615,1.615,0,0,0-1.041.782,1.734,1.734,0,0,0,.051,1.273,20.509,20.509,0,0,0,2.486,4.015l.012.014a25.916,25.916,0,0,0,5.879,4.753,9.365,9.365,0,0,0,3.739,1.158,8.9,8.9,0,0,0,3.972-.656,16.728,16.728,0,0,0,1.826-.864c.556-.354,1.156-.683,1.673-1.087l.8-.591c.264-.213.523-.471.784-.71A11.724,11.724,0,0,0,335,621.6a17.666,17.666,0,0,0,2.667-7.836c.014-.1.018-.2.031-.3.315.022.63.049.946.088.722.08,1.343.2,2.154.324a6.009,6.009,0,0,0,3.065-.41,28.861,28.861,0,0,0-2.443,2.707,13.5,13.5,0,0,0-2.472,4.772,16.6,16.6,0,0,0-.4,5.306c.223,3.369.928,6.43,1.184,9.327a15.321,15.321,0,0,1-.052,4.035c-.038.312-.14.579-.2.872l-.315,1.234a18.649,18.649,0,0,0-.418,2.645,39.627,39.627,0,0,0-.016,5.136c-.708-.536-1.424-1.083-2.157-1.633a26.628,26.628,0,0,0-5.775-3.418c-.274-.111-.539-.228-.825-.319l-.879-.244a10.375,10.375,0,0,0-1.809-.337l-.457-.055-.476.012-.937.037a15.84,15.84,0,0,0-1.823.37l-.061.013a.262.262,0,0,0-.046.016,10,10,0,0,0-4.014,3.219,18.751,18.751,0,0,0-2.248,4.277c-1.149,2.942-1.925,5.972-2.961,8.892a30.161,30.161,0,0,1-1.882,4.214c-.707,1.375-1.486,2.725-2.242,4.115a37.285,37.285,0,0,0-2.066,4.385,14.316,14.316,0,0,0-1.01,5.123,9.559,9.559,0,0,0,.47,2.806,7.512,7.512,0,0,0,1.441,2.69,10.293,10.293,0,0,0,4.867,3.056,19.174,19.174,0,0,0,10.464.005,17.536,17.536,0,0,0,9.041-5.615c.608-.772,1.049-1.419,1.5-2.1s.875-1.377,1.292-2.075c.829-1.4,1.6-2.821,2.314-4.258,1.438-2.874,2.692-5.8,3.88-8.712l.441-1.092.213-.548c.07-.183.151-.438.224-.654a10.935,10.935,0,0,0,.392-1.355,12.667,12.667,0,0,0,.264-1.35c.021-.138.031-.273.049-.411.324.129.638.269.978.377a19.324,19.324,0,0,0,7.1.886,24.707,24.707,0,0,0,6.793-1.39c.96-.329,1.89-.706,2.8-1.112.178.2.36.4.539.592.694.751,1.443,1.4,2.151,2.071a29.654,29.654,0,0,1,3.913,4.238,11.079,11.079,0,0,1,1.418,2.426,6.088,6.088,0,0,1,.231.649,2.208,2.208,0,0,1,.133.615,2.708,2.708,0,0,1-.038.6c-.057.217-.1.43-.176.644a26.754,26.754,0,0,1-2.658,5.016l-3.165,4.879a67.18,67.18,0,0,0-5.646,10.427,24.023,24.023,0,0,0-1.7,6.066,11.41,11.41,0,0,0,.091,3.492,5.208,5.208,0,0,0,.226.911,5.662,5.662,0,0,0,.326.9l.43.88.453.718a19.643,19.643,0,0,0,10.559,7.517,24.894,24.894,0,0,0,12.847.6,19.713,19.713,0,0,0,6.219-2.57,15.932,15.932,0,0,0,4.915-4.945l.05-.079a1.575,1.575,0,0,0,.123-.238,15.612,15.612,0,0,0,1.281-4.508,11.634,11.634,0,0,0-.377-4.6c-.79-2.95-2.511-5.266-4-7.474-.756-1.111-1.492-2.2-2.151-3.332s-1.213-2.306-1.807-3.49c-1.183-2.351-2.289-4.759-3.237-7.2A51.84,51.84,0,0,1,380.229,665a9.087,9.087,0,0,1-.264-2.919,4.449,4.449,0,0,1,.246-1,.971.971,0,0,1,.092-.23,1.163,1.163,0,0,1,.1-.243c.1-.181.14-.309.2-.428a2.16,2.16,0,0,1,.809-.8,5.075,5.075,0,0,1,1.561-.582,8.268,8.268,0,0,1,3.787.139,30.488,30.488,0,0,1,6.984,3.389c1.106.683,2.176,1.426,3.229,2.188a8.172,8.172,0,0,0,.827.588,4.066,4.066,0,0,0,1.033.518,3.68,3.68,0,0,0,1.161.235c.2.01.4.024.6.025l.572-.08a12.576,12.576,0,0,0,3.983-1.583c1.181-.66,2.293-1.338,3.388-1.874a7.887,7.887,0,0,1,3.07-.941c.224.012.436.039.647.042.257.038.558.105.833.155a16.751,16.751,0,0,1,1.674.409,46.261,46.261,0,0,1,6.742,2.973,29.46,29.46,0,0,0,7.981,2.975,15.556,15.556,0,0,0,2.357.227,13.885,13.885,0,0,0,2.41-.228c.385-.077.821-.152,1.164-.239l.976-.265,1.943-.557c5.153-1.549,10.091-3.508,14.953-5.357l3.638-1.373c1.154-.429,2.557-.937,3.8-1.5,2.535-1.112,4.891-2.384,7.2-3.616,4.62-2.469,9.039-4.86,13.645-5.726,5.29-1.117,10.247-2.51,15.25-3.362a48.15,48.15,0,0,1,7.373-.772c.592.014,1.191.012,1.777.04.562.067,1.186.065,1.7.166l.8.122.192.029a.092.092,0,0,0,.027.026c.021.018.037,0,.077.018.091.084.195.084.323.225l.2.161.206.234a11.121,11.121,0,0,1,1.6,2.721c.479,1.077.905,2.238,1.3,3.431.782,2.395,1.459,4.9,2.162,7.426s1.416,5.1,2.362,7.682a29.1,29.1,0,0,0,1.709,3.889,10.743,10.743,0,0,0,3.147,3.739,5.742,5.742,0,0,0,1.307.7,3.748,3.748,0,0,0,.566.193l.507.149c.678.213,1.348.362,2.021.52,1.348.286,2.69.491,4.029.667a58.491,58.491,0,0,0,8.03.451,54.291,54.291,0,0,0,7.98-.631,28.489,28.489,0,0,0,7.656-2.18A40.8,40.8,0,0,1,546.091,675.434ZM332.465,620.113a9.6,9.6,0,0,1-1.929,2.694,12.058,12.058,0,0,1-2.722,2.215,7.564,7.564,0,0,1-3.269,1.06,7.691,7.691,0,0,1-3.482-.676,13.928,13.928,0,0,1-3.166-1.892,27.647,27.647,0,0,1-2.8-2.464c-.467-.62-.915-1.255-1.33-1.908a8.86,8.86,0,0,1-1.041-2.049,1.4,1.4,0,0,1-.019-1.007,1.163,1.163,0,0,1,.824-.5,9.833,9.833,0,0,1,2.272-.145c1.553.025,3.126.143,4.71.158s3.186,0,4.792-.131a20.139,20.139,0,0,0,2.478-.313c.849-.175,1.636-.418,2.388-.639a29.4,29.4,0,0,1,3.284-.831A15.373,15.373,0,0,1,332.465,620.113Zm34.708-19.955a.172.172,0,0,1-.022-.047c0-.009,0-.023-.006-.033.013.027.02.046.02.046Zm-10.039-1.88a13.119,13.119,0,0,1,2.735-2.831l.3-.187c.084-.03.174-.082.254-.119.083-.006.1-.049.242-.065s.315-.022.469-.024a5.6,5.6,0,0,1,1.279.143,3.346,3.346,0,0,0-.456.194,8.55,8.55,0,0,0-1.671,1.278c-1,.954-1.906,1.987-2.8,3.024L354.8,602.8l-.011.016-.013.021a19.334,19.334,0,0,1-2.956,3.518c-.311.31-.641.6-.965.9.353-.462.7-.926,1.03-1.394C353.721,603.268,355.341,600.606,357.133,598.279Zm-18.377,59.869a9.71,9.71,0,0,1-.457,1.822c-.053.152-.082.27-.154.449l-.215.538-.42,1.078c-1.12,2.87-2.283,5.689-3.593,8.4-.653,1.357-1.345,2.687-2.086,3.978-.372.644-.753,1.281-1.148,1.906s-.814,1.275-1.158,1.736a12.806,12.806,0,0,1-6.481,4.235,14.8,14.8,0,0,1-7.975.279,6.913,6.913,0,0,1-3.085-1.612,5.3,5.3,0,0,1-1.4-3.051,11.544,11.544,0,0,1,.2-4.083,32.822,32.822,0,0,1,1.227-4.347c1-2.913,2.259-5.845,3.058-8.9a54.979,54.979,0,0,1,2.815-8.86,11.469,11.469,0,0,1,2.6-3.661,7.106,7.106,0,0,1,3.724-1.813l-.107.029a8.384,8.384,0,0,1,4.951,1.66,56.1,56.1,0,0,1,4.664,3.6c1.6,1.3,3.206,2.7,4.993,4.019.084.06.174.12.259.18A17.993,17.993,0,0,1,338.756,658.148Zm30.533-6.82-.01,0h.061C369.4,651.321,369.345,651.332,369.289,651.328Z" transform="translate(-307.066 -434.807)" fill="#f00e0e"/></g></g></svg>