<svg xmlns="http://www.w3.org/2000/svg" width="100%" height="100%" viewBox="0 0 220 172">
  <path d="M249.744,223.213a27.752,27.752,0,0,1-4.575-.266c.439-4.957.661-9.718.661-14.158,0-2.838-.069-6.007-.213-9.673,2.885-.981,15.423-2.29,40.8-2.29h65.4c15.387.234,32.176.765,48.118-.214q4.788-.294,9.485-.783c25.327-1.845,57.327-11.492,49.327-29.083-8-17.024-41-17.591-66.5-19.42-3.085-.2-6.148-.362-9.172-.486-9.056-.374-17.755-.437-25.154-.413H287.347c-27.695,0-39.011-1.351-41.728-2.205.141-3.53.211-6.81.211-9.758,0-2.858-.07-6.176-.216-10.13,1.651-.588,8.262-1.84,34.492-1.84,1.362,0,6.313.007,6.313.007h67.127c10.1-.008,20.149.271,30.3.269,3.39,0,6.792-.038,10.22-.129,23.68-.157,51.68-4.129,62.68-17.18a14.127,14.127,0,0,0,2.686-5.27c1.314-8.349-8.686-16.294-20.229-20.025-2.594-.925-5.343-1.758-8.177-2.494-31.28-9.663-67.28-4.556-101.363-5.042H284.029c-28.769,0-36.4-1.208-38.412-1.894.072-1.882.125-3.648.161-5.319s.043-3.249.036-4.753c-.069-3.437-1.069-9.112-.069-9.112,27.766-1.654,72.864.674,105.985,1.033,5.525.06,86.171-.769,89.27.5,9.191,3.767,19.745,39.323,22.72,47.372A21.386,21.386,0,0,1,465,106.611c.349,6.227-2.049,12.6-7.533,18.491a27.245,27.245,0,0,1-2.4,3.681,32.973,32.973,0,0,1-4.883,5.05,44.6,44.6,0,0,1-6.38,4.447,37.083,37.083,0,0,0-5.717,2.588c-8.336,4.315-20.336,4.315-31.336,4.882,26-1.7,47,10.214,56,23.266,5,8.512,3,17.591-2.781,25.92a28.991,28.991,0,0,1-2.195,4.713A33.432,33.432,0,0,1,446.042,211.2c-10.307,6.336-27.446,9.548-50.939,9.548H287.347c-3.976,0-9.819.514-16.586,1.11C263.555,222.494,255.388,223.213,249.744,223.213Z"
        transform="translate(-245.169 -50.965)" />
</svg>