<svg xmlns="http://www.w3.org/2000/svg" width="100%" height="100%" viewBox="0 0 212 173">
  <g transform="translate(-245.303 -50.415)">
    <path d="M245.778,65.417c-.036,1.671-.089,3.437-.161,5.319,2.01.686,9.643,1.894,38.412,1.894h11.854c2.409,0,5.107,0,8.019,0q13.543-.282,27.063-.635l8.986-.227q4.013-.19,7.944-.4C367,71,386,69,405.207,69.209q4.674.021,9.354.189t9.374.529C435,71,450,70,454,84c-2-8-6-16-13.107-20.222a37.168,37.168,0,0,0-7-4.415,63.621,63.621,0,0,0-8.7-3.448C400,49,374,50,347.505,51.507q-4.629.029-9.261.054c-12.348.065-24.684.083-36.977-.154-3.411-.07-6.812-.146-10.18-.211-16.843-.326-32.848-.388-45.342.356-1,0,0,5.675.069,9.112C245.821,62.168,245.813,63.746,245.778,65.417Z" />
    <path d="M245.624,144.222C270,148,293,145,316.9,146.427c4.027,0,8.222,0,12.418.005q3.33.079,6.644.122c12.518.223,24.778.835,37.046,1.269,3.067.108,6.132.205,9.223.256C403,149,428,144,446,159c-5-8-15-11-23-13,16,1,27-14,32.047-26.82a43.072,43.072,0,0,0,1.969-8.746,58.219,58.219,0,0,0,.736-9.262A56.106,56.106,0,0,0,457,92a37.124,37.124,0,0,1,0,7.453,34.6,34.6,0,0,1-1.5,7.171,40.139,40.139,0,0,1-4.353,6.994C437,131,415,124,395.9,124.764q-4.866-.253-9.718-.528c-19.435-1.068-39.015-2.017-58.266-1.688q-3.361.02-6.72.012t-6.708-.056c-3.976,0-7.717,0-11.093,0H286.419s-4.951-.007-6.313-.007c-26.23,0-32.841,1.252-34.492,1.84.146,3.954.216,7.272.216,10.13C245.83,137.412,245.76,140.692,245.624,144.222Z" />
    <path d="M399.019,197.076c-3.509-.038-7.264-.057-11.057-.045s-7.624.054-11.285.139c-2.815,0-5.627-.03-8.421-.068-5.586-.077-11.1-.2-16.441-.276H337.443C308,198,278,192,250,202c-4,1-2,9-3.647,14.336C246.125,218.688,246,221,246,223c3,0,6-.046,9.024-.1C278,223,301,220,324.31,220.751h28.535c2.244,0,4.459,0,6.627-.009C386,217,418,226,440.575,206.97a39.478,39.478,0,0,0,5.916-7.768,31.872,31.872,0,0,0,2.766-7.638A32.978,32.978,0,0,0,450,183a23.312,23.312,0,0,1-3.7,5.694,23.91,23.91,0,0,1-4.87,4.193,28.38,28.38,0,0,1-8.072,3.8,38.226,38.226,0,0,1-8.373,1.4C419,198,414,198,408.469,197.752,405.234,197.627,402.07,197.389,399.019,197.076Z" />
  </g>
</svg>